<?xml version="1.0" standalone="no"?>
<!DOCTYPE svg PUBLIC "-//W3C//DTD SVG 20010904//EN"
 "http://www.w3.org/TR/2001/REC-SVG-20010904/DTD/svg10.dtd">
<svg version="1.0" xmlns="http://www.w3.org/2000/svg"
 width="64.000000pt" height="64.000000pt" viewBox="0 0 64.000000 64.000000"
 preserveAspectRatio="xMidYMid meet">

<g transform="translate(0.000000,64.000000) scale(0.100000,-0.100000)"
fill="#000000" stroke="none">
<path d="M202 531 c-20 -25 -38 -38 -47 -35 -10 4 -15 -1 -15 -16 0 -12 -9
-34 -21 -48 -18 -23 -19 -27 -5 -30 13 -3 16 -17 16 -72 l0 -69 -42 -23 c-53
-29 -69 -65 -44 -99 17 -23 18 -23 11 -2 -3 12 -1 31 5 43 28 53 195 99 369
101 l96 2 -75 10 c-70 9 -215 -1 -277 -19 -23 -6 -23 -5 -23 78 l0 84 44 49
45 50 61 -67 c34 -38 66 -68 72 -68 11 0 -25 47 -94 123 l-43 48 -33 -40z"/>
<path d="M317 544 c-18 -24 -11 -34 9 -14 8 8 28 -10 68 -60 50 -62 76 -84 76
-64 0 4 -28 38 -62 78 -34 39 -64 74 -67 78 -4 3 -14 -4 -24 -18z"/>
<path d="M245 420 c3 -5 8 -10 11 -10 2 0 4 5 4 10 0 6 -5 10 -11 10 -5 0 -7
-4 -4 -10z"/>
</g>
</svg>
